<mxfile host="app.diagrams.net" modified="2024-01-02T17:14:49.623Z" agent="Mozilla/5.0 (Windows NT 10.0; Win64; x64) AppleWebKit/537.36 (KHTML, like Gecko) Chrome/120.0.0.0 Safari/537.36" etag="L7V48SpLLH43E9Z5tXSp" version="22.1.16" type="device">
  <diagram name="Page-1" id="gM64qw47xhpTUFFd05Pg">
    <mxGraphModel dx="1674" dy="746" grid="1" gridSize="10" guides="1" tooltips="1" connect="1" arrows="1" fold="1" page="1" pageScale="1" pageWidth="850" pageHeight="1100" math="0" shadow="0">
      <root>
        <mxCell id="0" />
        <mxCell id="1" parent="0" />
        <mxCell id="KLo0TK26uMytL423hShY-4" style="edgeStyle=orthogonalEdgeStyle;rounded=0;orthogonalLoop=1;jettySize=auto;html=1;" edge="1" parent="1" source="KLo0TK26uMytL423hShY-1" target="KLo0TK26uMytL423hShY-3">
          <mxGeometry relative="1" as="geometry" />
        </mxCell>
        <mxCell id="KLo0TK26uMytL423hShY-1" value="Node-red" style="image;aspect=fixed;perimeter=ellipsePerimeter;html=1;align=center;shadow=0;dashed=0;spacingTop=3;image=img/lib/active_directory/generic_node.svg;" vertex="1" parent="1">
          <mxGeometry x="190" y="271" width="50" height="49" as="geometry" />
        </mxCell>
        <mxCell id="KLo0TK26uMytL423hShY-5" style="edgeStyle=orthogonalEdgeStyle;rounded=0;orthogonalLoop=1;jettySize=auto;html=1;entryX=0;entryY=0.5;entryDx=0;entryDy=0;" edge="1" parent="1" source="KLo0TK26uMytL423hShY-2" target="KLo0TK26uMytL423hShY-1">
          <mxGeometry relative="1" as="geometry" />
        </mxCell>
        <mxCell id="KLo0TK26uMytL423hShY-2" value="sensors" style="sketch=0;outlineConnect=0;fontColor=#232F3E;gradientColor=none;fillColor=#7AA116;strokeColor=none;dashed=0;verticalLabelPosition=bottom;verticalAlign=top;align=center;html=1;fontSize=12;fontStyle=0;aspect=fixed;pointerEvents=1;shape=mxgraph.aws4.sensor;" vertex="1" parent="1">
          <mxGeometry x="50" y="270" width="44.87" height="50" as="geometry" />
        </mxCell>
        <mxCell id="KLo0TK26uMytL423hShY-3" value="" style="sketch=0;outlineConnect=0;fontColor=#232F3E;gradientColor=none;fillColor=#7AA116;strokeColor=none;dashed=0;verticalLabelPosition=bottom;verticalAlign=top;align=center;html=1;fontSize=12;fontStyle=0;aspect=fixed;pointerEvents=1;shape=mxgraph.aws4.mqtt_protocol;" vertex="1" parent="1">
          <mxGeometry x="350" y="270" width="50" height="50" as="geometry" />
        </mxCell>
        <mxCell id="KLo0TK26uMytL423hShY-6" value="actuator" style="verticalLabelPosition=bottom;sketch=0;html=1;fillColor=#6ABD46;strokeColor=#ffffff;verticalAlign=top;align=center;points=[[0.085,0.085,0],[0.915,0.085,0],[0.915,0.915,0],[0.085,0.915,0],[0.25,0,0],[0.5,0,0],[0.75,0,0],[1,0.25,0],[1,0.5,0],[1,0.75,0],[0.75,1,0],[0.5,1,0],[0.25,1,0],[0,0.75,0],[0,0.5,0],[0,0.25,0]];pointerEvents=1;shape=mxgraph.cisco_safe.compositeIcon;bgIcon=mxgraph.cisco_safe.architecture.generic_appliance;resIcon=mxgraph.cisco_safe.architecture.actuator;" vertex="1" parent="1">
          <mxGeometry x="550" y="270" width="50" height="50" as="geometry" />
        </mxCell>
        <mxCell id="KLo0TK26uMytL423hShY-7" style="edgeStyle=orthogonalEdgeStyle;rounded=0;orthogonalLoop=1;jettySize=auto;html=1;entryX=0;entryY=0.5;entryDx=0;entryDy=0;entryPerimeter=0;" edge="1" parent="1" source="KLo0TK26uMytL423hShY-3" target="KLo0TK26uMytL423hShY-6">
          <mxGeometry relative="1" as="geometry" />
        </mxCell>
      </root>
    </mxGraphModel>
  </diagram>
</mxfile>
